<svg xmlns="http://www.w3.org/2000/svg" fill="none" viewBox="0 0 24 24" height="24" width="24"><path fill="#ffffff" d="M22.5 1.5h-21v21h21v-21Z" stroke-width="1"></path><path fill="#bbd8ff" d="M18.929 17.515 17.444 19l1.485 1.485L20.414 19l-1.485 -1.485Z" stroke-width="1"></path><path fill="#bbd8ff" d="M4.93 3.515 3.443 5 4.93 6.485 6.414 5 4.93 3.515Z" stroke-width="1"></path><path stroke="#092f63" stroke-linecap="round" stroke-linejoin="round" stroke-miterlimit="10" d="M1.5 8.5h21" stroke-width="1"></path><path stroke="#092f63" stroke-linecap="round" stroke-linejoin="round" stroke-miterlimit="10" d="M1.5 15.5h21" stroke-width="1"></path><path stroke="#092f63" stroke-linecap="round" stroke-linejoin="round" stroke-miterlimit="10" d="M15.5 1.5v21" stroke-width="1"></path><path stroke="#092f63" stroke-linecap="round" stroke-linejoin="round" stroke-miterlimit="10" d="M8.5 1.5v21" stroke-width="1"></path><path stroke="#092f63" stroke-linecap="round" stroke-linejoin="round" stroke-miterlimit="10" d="M22.5 1.5h-21v21h21v-21Z" stroke-width="1"></path><path stroke="#092f63" stroke-linecap="round" stroke-linejoin="round" stroke-miterlimit="10" d="m10.5 10.5 3 3" stroke-width="1"></path><path stroke="#092f63" stroke-linecap="round" stroke-linejoin="round" stroke-miterlimit="10" d="m13.5 10.5 -3 3" stroke-width="1"></path><path stroke="#092f63" stroke-linecap="round" stroke-linejoin="round" stroke-miterlimit="10" d="M18.929 17.515 17.444 19l1.485 1.485L20.414 19l-1.485 -1.485Z" stroke-width="1"></path><path stroke="#092f63" stroke-linecap="round" stroke-linejoin="round" stroke-miterlimit="10" d="M4.93 3.515 3.443 5 4.93 6.485 6.414 5 4.93 3.515Z" stroke-width="1"></path></svg>